<svg width="387" height="458" viewBox="0 0 387 458" fill="none" xmlns="http://www.w3.org/2000/svg">
<path fill-rule="evenodd" clip-rule="evenodd" d="M296.831 366.512C294.646 388.684 254.546 403.802 201.061 405.089C201.005 405.089 200.893 405.089 200.837 405.089C188.067 405.369 174.514 404.921 160.513 403.578C132.062 400.834 106.075 394.843 85.1288 386.892C76.6159 383.701 68.9991 380.174 62.3345 376.422C43.5165 365.784 32.7634 353.354 33.9395 340.98C36.4038 315.729 88.0411 299.66 152.672 302.683C158.44 302.963 164.321 303.355 170.258 303.971C199.269 306.77 225.759 312.985 246.874 321.104C278.629 333.254 298.455 349.939 296.831 366.512Z" fill="#1C2628" stroke="#1C2628" stroke-width="2.13" stroke-linecap="round" stroke-linejoin="round"/>
<path d="M309.768 349.323C316.601 357.722 317.273 365.056 316.881 374.463C315.593 404.697 274.54 411.248 251.634 418.023" stroke="#1C2628" stroke-width="2.13" stroke-linecap="round" stroke-linejoin="round"/>
<path d="M81.2084 291.429C48.165 296.972 8.45688 318.64 20.4981 358.057" stroke="#1C2628" stroke-width="2.13" stroke-linecap="round" stroke-linejoin="round"/>
<path d="M227.888 374.966C229.624 372.559 229.344 374.127 227.327 374.575C220.103 376.198 212.878 378.102 205.709 380.006C196.636 382.413 188.907 388.292 180.563 392.547" stroke="#1C2628" stroke-width="2.13" stroke-linecap="round" stroke-linejoin="round"/>
<path fill-rule="evenodd" clip-rule="evenodd" d="M272.244 290.197C305.512 254.755 219.823 88.4086 166.729 120.435C148.359 129.001 140.855 143.503 133.518 160.58C115.708 225.921 37.6359 204.084 35.2836 274.632C30.8592 377.598 236.624 365.952 272.244 290.197Z" fill="#FF8A48"/>
<path fill-rule="evenodd" clip-rule="evenodd" d="M79.8083 169.482C92.0175 167.523 103.667 166.291 100.306 183.648C99.8583 186 96.498 200.669 84.6808 202.293C60.7103 206.156 55.7258 172.786 79.8083 169.482Z" fill="#FF8A48"/>
<path fill-rule="evenodd" clip-rule="evenodd" d="M115.988 165.675C110.835 169.314 101.034 164.275 104.283 157.5C106.803 143.335 134.582 159.292 115.988 165.675Z" fill="#FF8A48"/>
<path d="M120.748 246.245C122.485 250.332 124.277 254.811 123.157 259.123C122.261 262.706 119.516 265.562 116.772 268.025C115.372 269.257 113.916 270.545 112.124 271.049C110.331 271.609 108.147 271.273 106.971 269.817C105.683 268.249 106.019 265.842 106.971 264.05C107.699 262.65 108.931 261.418 110.443 260.97C113.076 260.187 115.876 262.146 116.94 264.666C118.004 267.185 117.724 270.041 117.164 272.728C114.868 283.702 108.651 293.333 102.547 302.739" stroke="#1C2628" stroke-width="2.13" stroke-linecap="round" stroke-linejoin="round"/>
<path fill-rule="evenodd" clip-rule="evenodd" d="M88.7692 233.535C95.2658 234.319 103.443 223.625 93.8657 222.561C90.8974 223.625 84.7928 232.191 87.7611 233.311" fill="#FAF6EB"/>
<path fill-rule="evenodd" clip-rule="evenodd" d="M153.064 161.42C146.063 162.876 143.263 169.202 146.679 175.809C147.631 177.657 153.232 185.72 158.272 184.824C160.681 184.376 168.353 185.44 166.841 167.131C165.889 159.964 162.417 159.516 153.064 161.42Z" fill="#C60000" stroke="#1C2628" stroke-width="2.13" stroke-linecap="round" stroke-linejoin="round"/>
<path fill-rule="evenodd" clip-rule="evenodd" d="M259.139 267.465C250.682 295.796 208.118 360.969 205.093 371.775L204.645 369.927C195.068 373.287 140.126 373.791 122.149 356.49C120.356 354.754 118.956 352.906 117.948 350.779L132.846 313.713C131.95 315.001 123.157 307.218 133.406 285.718C136.206 279.839 142.031 263.938 142.031 263.938C142.479 261.53 143.767 252.18 145.335 240.758C145.111 240.366 145.055 240.142 145.055 240.142C140.126 236.783 121.645 238.126 117.444 223.681C116.828 221.497 116.492 218.922 116.604 215.898C116.716 212.539 118.788 210.971 121.141 210.299C123.437 209.627 126.013 209.739 127.301 209.851C134.246 210.243 141.023 212.819 147.463 215.506C147.911 215.674 148.303 215.898 148.751 216.066C150.936 200.333 153.008 186.671 153.68 185.944C154.8 184.712 155.864 183.48 156.928 182.304C160.289 178.609 163.705 175.809 169.474 177.937C173.226 179.281 176.866 180.736 180.339 182.416C187.675 185.944 194.34 190.423 199.661 197.086C204.925 203.636 209.686 210.691 213.27 218.25C216.518 225.081 218.647 232.527 219.991 239.918C220.943 244.957 221.615 250.22 221.279 255.371C221.223 256.659 221.055 257.891 220.831 259.179C219.823 264.834 218.423 270.377 216.854 275.864L259.139 267.465Z" fill="#C60000" stroke="#1C2628" stroke-width="2.13" stroke-linecap="round" stroke-linejoin="round"/>
<path fill-rule="evenodd" clip-rule="evenodd" d="M122.149 356.49C120.356 354.754 118.956 352.906 117.948 350.779L132.846 313.713C131.95 315.001 123.157 307.218 133.406 285.718C136.206 279.839 142.031 263.938 142.031 263.938C142.479 261.53 143.767 252.18 145.335 240.758C145.111 240.366 145.055 240.142 145.055 240.142C140.126 236.783 121.645 238.126 117.444 223.681C121.533 224.409 125.901 225.753 130.549 227.152C139.846 229.952 145.447 231.632 148.415 236.839C151.888 242.886 147.575 246.245 150.432 260.522C151.272 264.834 152.112 266.625 153.176 272.952C154.408 280.231 154.968 283.926 153.904 286.67C151.216 293.445 143.319 294.117 143.431 298.372C143.487 300.891 146.287 301.899 149.143 304.587C149.143 304.587 156.76 311.642 157.376 324.463C158.16 340.645 136.766 359.345 122.149 356.49Z" fill="#FAF6EB"/>
<path fill-rule="evenodd" clip-rule="evenodd" d="M221.335 255.427C217.695 258.507 213.718 260.914 209.406 262.258C197.7 265.954 185.603 261.306 175.242 257.275C167.065 254.084 157.208 250.332 154.688 241.99C153.288 237.343 155.08 234.431 152.392 231.016C149.311 227.208 145.223 228.664 137.942 225.529C130.774 222.449 126.573 217.466 125.005 215.562C123.773 214.107 122.429 212.259 121.197 210.243C123.493 209.571 126.069 209.683 127.357 209.795C134.302 210.187 141.079 212.763 147.519 215.45C147.967 215.618 148.359 215.842 148.807 216.01C150.992 200.277 153.064 186.615 153.736 185.888C154.856 184.656 155.92 183.424 156.984 182.248C164.489 181.744 172.498 181.8 180.451 182.36C187.787 185.888 194.452 190.367 199.773 197.03C205.037 203.58 209.798 210.635 213.382 218.194C216.63 225.025 218.759 232.471 220.103 239.862C220.999 245.013 221.727 250.276 221.335 255.427Z" fill="#1C2628" stroke="#1C2628" stroke-width="2.13" stroke-linecap="round" stroke-linejoin="round"/>
<path fill-rule="evenodd" clip-rule="evenodd" d="M133.07 355.37C135.366 353.298 137.606 351.115 139.678 348.819C122.261 338.293 122.093 329.782 122.093 329.782L85.1288 386.836C103.163 393.667 124.949 399.042 148.751 402.178C144.887 392.099 138.95 382.525 131.39 374.407C126.909 368.808 128.589 359.849 133.07 355.37Z" fill="#FAF6EB"/>
<path fill-rule="evenodd" clip-rule="evenodd" d="M156.2 356.994C149.423 354.194 144.047 351.451 139.678 348.819C137.662 351.115 135.422 353.298 133.07 355.37C128.589 359.849 126.909 368.808 131.39 374.407C139.006 382.525 144.943 392.099 148.751 402.178C152.616 402.682 156.536 403.13 160.513 403.522C174.458 404.865 188.011 405.369 200.837 405.033C200.893 405.033 201.005 405.033 201.061 405.033L216.798 360.969C216.798 361.025 196.58 373.679 156.2 356.994Z" fill="#C60000"/>
<path fill-rule="evenodd" clip-rule="evenodd" d="M224.247 236.279C225.815 232.079 223.575 225.473 222.343 221.273C215.454 198.205 195.964 186.615 176.418 175.305C169.642 171.386 165.833 170.714 159.729 181.8C156.48 187.679 154.352 202.125 158.776 206.156C171.938 217.97 188.235 227.264 197.196 242.158C198.541 244.397 205.373 264.554 205.373 264.554C205.373 264.554 209.742 259.459 215.118 254.812C219.599 250.892 220.887 250.612 221.559 249.66L224.247 236.279Z" fill="#F7AA9A"/>
<path d="M284.117 148.822C282.493 147.982 281.821 146.022 282.661 144.343L282.773 144.175C283.613 142.551 285.574 141.879 287.254 142.719C288.878 143.559 289.55 145.519 288.71 147.198L288.598 147.366C287.702 149.046 285.742 149.662 284.117 148.822ZM286.582 144.063C285.686 143.615 284.621 143.951 284.117 144.847L284.005 145.015C283.557 145.911 283.893 146.974 284.789 147.478C285.686 147.926 286.75 147.59 287.254 146.694L287.366 146.526C287.814 145.575 287.478 144.511 286.582 144.063Z" fill="#1C2628" stroke="#1C2628" stroke-width="2.13" stroke-linecap="round" stroke-linejoin="round"/>
<path d="M280.589 155.709C278.965 154.869 278.293 152.909 279.133 151.23L279.245 151.062C280.085 149.438 282.045 148.766 283.725 149.606C285.406 150.446 286.022 152.405 285.182 154.085L285.069 154.253C284.173 155.933 282.213 156.549 280.589 155.709ZM282.997 150.95C282.101 150.502 281.037 150.838 280.533 151.733L280.421 151.901C279.973 152.797 280.309 153.861 281.205 154.365C282.101 154.869 283.165 154.477 283.669 153.581L283.781 153.413C284.285 152.461 283.949 151.398 282.997 150.95Z" fill="#1C2628" stroke="#1C2628" stroke-width="2.13" stroke-linecap="round" stroke-linejoin="round"/>
<path d="M286.694 140.423C284.285 139.192 283.389 136.224 284.565 133.873L288.654 125.978C289.886 123.57 292.798 122.675 295.206 123.85C297.615 125.082 298.511 128.05 297.335 130.401L293.246 138.296C292.014 140.703 289.046 141.655 286.694 140.423ZM294.534 125.194C292.854 124.354 290.838 124.97 289.998 126.65L285.91 134.545C285.069 136.224 285.685 138.24 287.366 139.08C289.046 139.92 291.062 139.304 291.902 137.624L295.991 129.729C296.831 128.05 296.215 126.034 294.534 125.194Z" fill="#1C2628" stroke="#1C2628" stroke-width="2.13" stroke-linecap="round" stroke-linejoin="round"/>
<path fill-rule="evenodd" clip-rule="evenodd" d="M314.865 93.4477L231.304 255.651C228.784 260.579 222.735 262.482 217.807 259.963L144.719 222.337C139.79 219.818 137.886 213.771 140.407 208.844L187.787 116.796C189.468 116.684 191.148 116.572 192.884 116.46L144.495 210.467C143.039 213.323 144.159 216.85 147.015 218.362L219.543 255.651C220.383 256.099 221.279 256.323 222.231 256.323C224.415 256.323 226.431 255.091 227.44 253.132L310.664 91.544C310.944 90.9841 311.112 90.4242 311.224 89.8643C311.28 89.8643 311.336 89.8083 311.392 89.8083C312.96 89.1364 314.473 88.4085 315.985 87.7367C316.153 89.5843 315.817 91.6 314.865 93.4477Z" fill="#1C2628" stroke="#1C2628" stroke-width="2.13" stroke-linecap="round" stroke-linejoin="round"/>
<path fill-rule="evenodd" clip-rule="evenodd" d="M311.168 89.8643C311.056 90.4242 310.888 90.9841 310.608 91.544L227.439 253.132C226.431 255.091 224.415 256.323 222.231 256.323C221.279 256.323 220.383 256.099 219.543 255.651L147.015 218.362C144.159 216.906 143.039 213.379 144.495 210.467L192.884 116.516C204.141 115.732 216.406 114.332 229.232 112.26C261.379 106.997 290.67 98.7667 311.168 89.8643Z" fill="#FAF6EB"/>
<path fill-rule="evenodd" clip-rule="evenodd" d="M264.739 57.334C264.739 57.334 263.171 60.4134 263.059 62.989C263.059 63.157 263.059 63.2689 263.059 63.4369C263.115 65.7885 264.571 67.8601 266.644 68.924L272.02 71.6675C273.532 72.4513 275.268 72.6193 276.837 72.1154C277.509 71.8914 278.181 71.6115 278.797 71.2196C280.981 69.7638 282.437 66.7403 282.437 66.7403L264.739 57.334Z" fill="#1C2628" stroke="#1C2628" stroke-width="2.13" stroke-linecap="round" stroke-linejoin="round"/>
<path fill-rule="evenodd" clip-rule="evenodd" d="M269.668 227.992C270.228 231.016 264.291 257.891 256.675 274.52L172.834 290.421C172.834 290.421 175.018 282.191 179.555 273.064C183.587 264.946 189.412 256.155 197.196 251.788C220.159 238.91 237.689 245.013 237.689 245.013C237.689 245.013 238.809 235.047 245.921 222.393C245.921 222.393 245.977 220.266 246.313 217.074C246.986 210.691 248.778 200.277 253.538 195.518C263.731 185.328 271.796 187.343 271.236 188.911C271.684 191.039 270.172 226.48 269.668 227.992Z" fill="#C60000" stroke="#1C2628" stroke-width="2.13" stroke-linecap="round" stroke-linejoin="round"/>
<path fill-rule="evenodd" clip-rule="evenodd" d="M139.734 176.313C132.622 177.825 129.765 184.208 133.238 190.983C134.19 192.83 139.902 201.117 145.055 200.165C147.463 199.717 155.304 200.781 153.792 182.136C152.784 174.857 149.199 174.354 139.734 176.313Z" fill="#C60000" stroke="#1C2628" stroke-width="2.13" stroke-linecap="round" stroke-linejoin="round"/>
<path d="M200.837 405.089C188.067 405.369 174.514 404.921 160.513 403.577C132.062 400.834 106.075 394.843 85.1288 386.892" stroke="#1C2628" stroke-width="2.13" stroke-linecap="round" stroke-linejoin="round"/>
<path d="M123.381 333.702C123.381 333.702 125.901 341.82 139.678 348.819C153.456 355.818 167.737 365.28 187.843 365.28" stroke="#1C2628" stroke-width="2.13" stroke-linecap="round" stroke-linejoin="round"/>
<path d="M263.563 190.815C263.563 190.815 261.491 203.468 263.563 205.484C265.635 207.556 268.66 207.556 268.66 207.556" stroke="#1C2628" stroke-width="2.13" stroke-linecap="round" stroke-linejoin="round"/>
<path fill-rule="evenodd" clip-rule="evenodd" d="M238.305 254.644C230.016 258.563 225.815 252.012 215.118 254.812C201.957 258.339 200.837 270.321 189.524 273.176C186.891 273.848 183.587 274.072 179.499 273.064C183.531 264.946 189.356 256.155 197.14 251.788C220.103 238.91 237.633 245.013 237.633 245.013C237.633 245.013 238.753 235.047 245.865 222.393C245.865 222.393 245.921 220.266 246.257 217.074C248.722 220.601 250.458 224.633 250.962 229C252.026 238.91 246.873 250.556 238.305 254.644Z" fill="#FAF6EB"/>
<path fill-rule="evenodd" clip-rule="evenodd" d="M165.497 297.196C164.769 292.717 174.57 287.622 182.803 283.367C201.005 273.96 220.663 270.601 223.351 270.153C234.496 268.361 241.889 268.473 248.722 262.202C252.866 258.451 257.627 251.34 259.083 251.844C261.435 252.684 259.867 267.857 255.33 277.488C244.913 299.716 211.478 303.579 205.429 304.307C187.955 306.49 166.505 303.523 165.497 297.196Z" fill="#C60000"/>
<path d="M301.367 168.363L284.453 179.617" stroke="#1C2628" stroke-width="2.13" stroke-linecap="round" stroke-linejoin="round"/>
<path d="M302.375 185.943L284.789 187.959" stroke="#1C2628" stroke-width="2.13" stroke-linecap="round" stroke-linejoin="round"/>
<path d="M283.445 196.582L299.687 214.163" stroke="#1C2628" stroke-width="2.13" stroke-linecap="round" stroke-linejoin="round"/>
<path d="M284.117 214.499L292.07 224.129" stroke="#1C2628" stroke-width="2.13" stroke-linecap="round" stroke-linejoin="round"/>
<path d="M123.941 361.361C121.925 366.064 120.58 371.439 122.317 376.198C123.605 379.838 126.517 382.637 128.981 385.661C131.446 388.684 133.574 392.379 132.958 396.243" stroke="#1C2628" stroke-width="2.13" stroke-linecap="round" stroke-linejoin="round"/>
<path d="M132.79 383.197C134.414 386.557 137.886 388.684 139.398 392.044C140.126 393.667 140.351 395.515 140.351 397.307" stroke="#1C2628" stroke-width="2.13" stroke-linecap="round" stroke-linejoin="round"/>
<path d="M150.544 321.664C150.544 324.239 150.544 326.871 150.096 329.446C149.647 332.022 148.695 334.542 146.959 336.445C145.111 338.517 142.535 339.805 140.07 341.036" stroke="#1C2628" stroke-width="2.13" stroke-linecap="round" stroke-linejoin="round"/>
<path d="M152.56 334.43C151.832 336.669 150.32 338.685 148.359 340.029" stroke="#1C2628" stroke-width="2.13" stroke-linecap="round" stroke-linejoin="round"/>
<path d="M137.886 191.599C137.606 189.135 137.326 186.559 138.278 184.32C139.23 182.08 141.919 180.288 144.215 181.296" stroke="#1C2628" stroke-width="2.13" stroke-linecap="round" stroke-linejoin="round"/>
<path d="M248.498 267.073C236.68 286.726 225.479 306.826 214.95 327.207" stroke="#1C2628" stroke-width="2.13" stroke-linecap="round" stroke-linejoin="round"/>
<path d="M232.816 306.546L210.414 349.603" stroke="#1C2628" stroke-width="2.13" stroke-linecap="round" stroke-linejoin="round"/>
<path d="M260.707 239.078C257.179 254.14 258.131 264.61 244.857 285.494" stroke="#1C2628" stroke-width="2.13" stroke-linecap="round" stroke-linejoin="round"/>
<path fill-rule="evenodd" clip-rule="evenodd" d="M340.795 67.0203C339.955 73.4592 330.77 80.6819 315.929 87.6807C314.473 88.3526 312.904 89.0804 311.336 89.7523C311.28 89.7523 311.224 89.8083 311.168 89.8083C290.67 98.7108 261.323 106.997 229.232 112.204C216.406 114.276 204.141 115.676 192.884 116.46C191.148 116.572 189.468 116.684 187.787 116.796C174.178 117.523 162.137 117.356 152.28 116.236C134.414 114.276 123.941 109.349 124.893 101.902C125.845 94.5115 137.998 85.945 157.04 77.9944C173.002 71.3315 193.78 65.0606 216.91 60.3015C218.759 59.9095 220.551 59.5736 222.399 59.1817C226.991 58.2858 231.696 57.446 236.456 56.6621C241.609 55.8222 246.65 55.0944 251.522 54.4785C254.21 54.1425 256.843 53.8626 259.419 53.5826C277.285 51.679 293.302 51.1751 306.352 52.0149C328.474 53.4707 341.859 58.6777 340.795 67.0203Z" fill="#1C2628" stroke="#1C2628" stroke-width="2.13" stroke-linecap="round" stroke-linejoin="round"/>
<path d="M192.1 105.318C190.42 105.43 188.796 105.542 187.171 105.598C182.019 105.878 177.034 106.045 172.386 106.045C165.441 106.045 159.112 105.71 153.512 105.094" stroke="#FAF6EB" stroke-width="2.13" stroke-linecap="round" stroke-linejoin="round"/>
<path d="M311.112 77.6024C309.712 78.2743 308.312 78.8902 306.856 79.5621L306.576 79.6741" stroke="#FAF6EB" stroke-width="2.13" stroke-linecap="round" stroke-linejoin="round"/>
<path d="M161.353 88.3526C176.922 81.8577 197.42 75.8108 219.151 71.2755C220.943 70.9396 222.679 70.5477 224.527 70.2117C229.008 69.3719 233.6 68.532 238.249 67.7482C243.177 66.9643 248.106 66.2364 252.978 65.6205C255.442 65.2846 257.851 65.0046 260.147 64.7807L260.707 64.7247C272.468 63.4929 283.445 62.821 293.47 62.821C297.783 62.821 301.927 62.933 305.736 63.157" stroke="#FAF6EB" stroke-width="2.13" stroke-linecap="round" stroke-linejoin="round"/>
<path d="M328.25 42.4406C356.925 44.2883 374.343 51.0071 372.886 61.8132C371.822 70.1557 359.837 79.5621 340.627 88.6325C338.723 89.5284 336.707 90.4242 334.691 91.3201C334.635 91.376 334.579 91.376 334.523 91.376" stroke="#1C2628" stroke-width="2.13" stroke-linecap="round" stroke-linejoin="round"/>
<path d="M128.365 125.754C105.179 123.178 91.5695 116.796 92.8016 107.165C94.0337 97.535 109.827 86.4489 134.47 76.1467C155.192 67.4682 182.187 59.4056 212.15 53.1907C214.502 52.6868 216.91 52.2389 219.263 51.735C225.255 50.5592 231.36 49.4954 237.521 48.4875C244.185 47.4237 250.738 46.4719 257.123 45.688" stroke="#1C2628" stroke-width="2.13" stroke-linecap="round" stroke-linejoin="round"/>
<path d="M295.206 424.238C263.787 432.58 232.2 443.723 199.717 441.763" stroke="#1C2628" stroke-width="2.13" stroke-linecap="round" stroke-linejoin="round"/>
<path d="M232.648 173.514C247.031 173.514 258.691 161.857 258.691 147.478C258.691 133.099 247.031 121.443 232.648 121.443C218.265 121.443 206.605 133.099 206.605 147.478C206.605 161.857 218.265 173.514 232.648 173.514Z" fill="#FF8A48"/>
<path d="M215.23 138.296C220.271 128.666 232.2 124.97 241.777 130.065" stroke="#1C2628" stroke-width="2.13" stroke-linecap="round" stroke-linejoin="round"/>
<path d="M220.047 140.815C223.687 133.873 232.312 131.185 239.257 134.88" stroke="#1C2628" stroke-width="2.13" stroke-linecap="round" stroke-linejoin="round"/>
<path d="M232.648 151.006C234.597 151.006 236.176 149.426 236.176 147.478C236.176 145.53 234.597 143.951 232.648 143.951C230.699 143.951 229.12 145.53 229.12 147.478C229.12 149.426 230.699 151.006 232.648 151.006Z" stroke="#1C2628" stroke-width="2.13" stroke-linecap="round" stroke-linejoin="round"/>
<path d="M234.216 166.291L227.159 179.729" stroke="#1C2628" stroke-width="2.13" stroke-linecap="round" stroke-linejoin="round"/>
<path d="M234.216 166.291C233.096 165.731 232.704 164.331 233.264 163.267L234.44 161.084C235 159.964 236.4 159.572 237.465 160.132C238.585 160.692 238.977 162.092 238.417 163.156L237.241 165.339C236.68 166.459 235.28 166.851 234.216 166.291Z" stroke="#1C2628" stroke-width="2.13" stroke-linecap="round" stroke-linejoin="round"/>
<path d="M188.459 180.288L228.392 200.613" stroke="#1C2628" stroke-width="2.13" stroke-linecap="round" stroke-linejoin="round"/>
<path d="M204.981 200.221L229.68 212.875" stroke="#1C2628" stroke-width="2.13" stroke-linecap="round" stroke-linejoin="round"/>
<path d="M177.65 186.279L204.981 200.221" stroke="black" stroke-width="6" stroke-linecap="round" stroke-linejoin="round"/>
<path d="M72.6395 270.377C70.0632 269.425 67.2629 269.481 64.9667 270.321C63.6226 270.769 62.4464 271.441 61.4944 272.224C61.3263 271.609 61.2143 270.993 61.0463 270.377C60.7663 269.201 60.4862 267.969 60.2622 266.737C61.3263 265.618 62.2784 264.386 63.1185 263.042C65.2467 259.963 66.7029 256.267 66.8709 252.46C66.9829 248.709 66.9269 244.845 65.4708 241.598C65.1347 240.758 64.7427 240.198 64.0706 239.078C63.8466 238.686 63.3985 237.902 62.8385 237.343C62.2784 236.727 61.2703 236.335 60.2622 236.503C58.246 236.951 57.4059 238.238 56.8459 239.19C56.5658 239.694 56.3978 240.142 56.2298 240.702C56.1178 240.982 56.0618 241.15 56.0058 241.374L55.9498 241.542C55.8938 241.71 55.8938 241.71 55.8938 241.766L55.8378 242.102C55.4457 244.061 55.6698 245.853 55.8938 247.533C56.1178 249.212 56.3418 250.836 56.5098 252.46C56.7339 255.035 57.1259 257.555 57.63 260.075C56.8459 261.194 56.0058 262.314 55.1097 263.322L53.4295 265.226C52.8695 265.842 52.3094 266.569 51.6933 267.297C49.3971 270.209 47.6049 273.512 46.6528 277.208C45.6447 280.847 46.0368 285.158 48.109 288.406C50.1252 291.709 53.3735 293.781 56.6218 294.789C59.8142 295.74 63.0625 295.964 66.1428 295.516C66.5349 297.084 66.9269 298.652 67.2629 300.108C68.4951 303.971 67.375 307.61 65.0227 308.954C63.2865 309.906 61.4943 309.57 60.3182 308.954C60.4302 308.954 60.5423 308.954 60.7103 308.954C62.5585 308.898 63.9586 307.33 63.8466 305.483C63.7906 303.635 62.2224 302.235 60.3742 302.347C58.526 302.403 57.1259 303.971 57.2379 305.819C57.2379 305.987 57.2939 306.099 57.2939 306.267C57.4059 306.938 57.742 307.554 58.19 308.002C58.302 308.17 58.414 308.282 58.582 308.45C59.1981 309.066 60.0382 309.682 61.2143 310.018C62.3904 310.354 63.8466 310.41 65.4148 309.794C66.9269 309.178 68.3271 307.722 68.8871 305.819C69.1671 304.867 69.3352 303.859 69.2231 302.795C69.1111 301.675 68.8871 300.723 68.6631 299.716C68.3271 298.26 67.935 296.748 67.543 295.18C70.2873 294.621 72.8075 293.501 75.0477 291.989C77.512 290.141 79.3602 287.454 79.9202 284.486C80.5363 281.519 79.9763 278.439 78.6881 275.92C77.512 273.4 75.2718 271.329 72.6395 270.377ZM58.8061 245.125C59.1981 243.781 59.8702 240.086 61.9424 240.59C63.2305 240.926 63.5666 242.662 63.6226 243.781C63.7906 246.413 63.2865 249.156 62.1664 251.564C61.1023 253.916 59.9822 256.099 58.6941 258.283C58.414 256.323 58.19 254.364 58.022 252.348C57.91 249.94 58.19 247.477 58.8061 245.125ZM57.63 292.213C54.9417 291.037 52.5334 289.134 51.3013 286.614C50.0692 284.15 50.0692 281.239 51.0773 278.495C52.0854 275.752 53.9896 273.232 56.0618 270.993C56.5658 270.433 57.0699 269.873 57.742 269.257L58.6381 268.417C58.8621 268.193 59.0301 268.025 59.2541 267.801C59.4781 268.753 59.7022 269.705 59.8702 270.657C60.0382 271.497 60.2622 272.28 60.4302 273.12C58.5821 274.968 57.5179 277.208 57.1819 279.167C56.6218 282.471 57.5179 284.99 58.246 286.446C58.582 287.174 58.9741 287.734 59.1981 288.07C59.4221 288.406 59.5902 288.574 59.5902 288.574C59.5902 288.574 59.3101 287.734 59.0301 286.166C58.8061 284.654 58.5821 282.303 59.5341 279.783C59.9262 278.775 60.4862 277.712 61.3263 276.76C62.1664 280.175 63.0065 283.534 63.8466 286.614C64.4627 289.022 65.0787 291.373 65.6948 293.557C62.9505 293.781 60.0942 293.333 57.63 292.213ZM78.2401 284.262C78.0721 286.782 76.6159 289.246 74.3197 290.813C72.3035 292.213 69.8392 293.109 67.2069 293.445C66.5909 291.149 65.9188 288.798 65.1907 286.278C64.2386 282.975 63.2865 279.447 62.3344 275.752C63.3425 274.856 64.5747 274.128 66.0308 273.736C69.3352 272.84 73.4796 273.904 76.1679 277.544C77.512 279.391 78.4081 281.799 78.2401 284.262Z" fill="#1C2628" stroke="#1C2628" stroke-width="2.13" stroke-linecap="round" stroke-linejoin="round"/>
<path d="M172.05 214.107L163.761 200.109L180.003 199.885L172.05 214.107Z" fill="#1C2628" stroke="#1C2628" stroke-width="2.13" stroke-linecap="round" stroke-linejoin="round"/>
<path d="M207.837 234.151L224.135 233.983L215.79 219.986L207.837 234.151Z" fill="#1C2628" stroke="#1C2628" stroke-width="2.13" stroke-linecap="round" stroke-linejoin="round"/>
<path d="M193.006 207.223L185.03 221.431L189.181 223.76L197.157 209.552L193.006 207.223Z" fill="#1C2628" stroke="#1C2628" stroke-width="2.1299" stroke-miterlimit="3.9998" stroke-linecap="round" stroke-linejoin="round"/>
<path d="M200.101 211.191L192.124 225.399L196.276 227.728L204.252 213.52L200.101 211.191Z" fill="#1C2628" stroke="#1C2628" stroke-width="2.1299" stroke-miterlimit="3.9998" stroke-linecap="round" stroke-linejoin="round"/>
</svg>
