<svg width="223" height="838" viewBox="0 0 223 838" fill="none" xmlns="http://www.w3.org/2000/svg">
<g filter="url(#filter0_f_30_2)">
<path fill-rule="evenodd" clip-rule="evenodd" d="M0 4L31.6555 70.4144C39.5694 84.9363 55.3972 114.64 59.3541 143.684C63.3111 173.388 55.3972 202.432 75.1818 232.136C94.9665 261.18 157.301 254.456 185 283.5C212.699 312.544 228.328 378.676 212.5 407.72C196.672 437.424 134.536 466.468 118.708 496.172C102.88 525.216 110.794 554.92 122.665 583.964C134.536 613.008 150.364 642.712 130.579 671.756C110.794 701.46 55.3972 730.504 27.6986 760.208C-3.8147e-06 789.252 1.01535e-05 818.956 9.51873e-06 833.478C1.01535e-05 818.956 1.14519e-05 789.252 1.27215e-05 760.208C1.40199e-05 730.504 1.52894e-05 701.46 1.65878e-05 671.756C1.78574e-05 642.712 1.91558e-05 613.008 2.04253e-05 583.964C2.16949e-05 554.92 2.29933e-05 525.216 2.42628e-05 496.172C2.55612e-05 466.468 2.68308e-05 437.424 2.81292e-05 407.72C2.93987e-05 378.676 3.06971e-05 348.972 3.19667e-05 319.928C3.32362e-05 290.884 3.45347e-05 261.18 3.58042e-05 232.136C3.71026e-05 202.432 3.83722e-05 173.388 3.96706e-05 143.684C4.09401e-05 114.64 4.22385e-05 84.9363 4.28733e-05 70.4144L0 4Z" fill="#C60000" fill-opacity="0.1"/>
</g>
<defs>
<filter id="filter0_f_30_2" x="-4" y="0" width="226.824" height="837.478" filterUnits="userSpaceOnUse" color-interpolation-filters="sRGB">
<feFlood flood-opacity="0" result="BackgroundImageFix"/>
<feBlend mode="normal" in="SourceGraphic" in2="BackgroundImageFix" result="shape"/>
<feGaussianBlur stdDeviation="2" result="effect1_foregroundBlur_30_2"/>
</filter>
</defs>
</svg>
